<?xml version="1.0" encoding="UTF-8" standalone="no"?>
<!-- Created with Inkscape (http://www.inkscape.org/) -->

<svg
   width="210mm"
   height="297mm"
   viewBox="0 0 210 297"
   version="1.1"
   id="svg1"
   xml:space="preserve"
   inkscape:version="1.3.2 (091e20e, 2023-11-25, custom)"
   sodipodi:docname="bin-all-icons.svg"
   xmlns:inkscape="http://www.inkscape.org/namespaces/inkscape"
   xmlns:sodipodi="http://sodipodi.sourceforge.net/DTD/sodipodi-0.dtd"
   xmlns="http://www.w3.org/2000/svg"
   xmlns:svg="http://www.w3.org/2000/svg"><sodipodi:namedview
     id="namedview1"
     pagecolor="#ffffff"
     bordercolor="#666666"
     borderopacity="1.0"
     inkscape:showpageshadow="2"
     inkscape:pageopacity="0.0"
     inkscape:pagecheckerboard="0"
     inkscape:deskcolor="#d1d1d1"
     inkscape:document-units="mm"
     inkscape:zoom="1.7959596"
     inkscape:cx="305.12936"
     inkscape:cy="54.845332"
     inkscape:window-width="1600"
     inkscape:window-height="837"
     inkscape:window-x="-8"
     inkscape:window-y="-8"
     inkscape:window-maximized="1"
     inkscape:current-layer="layer1" /><defs
     id="defs1" /><g
     inkscape:label="Camada 1"
     inkscape:groupmode="layer"
     id="layer1"><path
       id="path4"
       style="fill:#000000;stroke:none;stroke-width:0.599326px;stroke-linecap:butt;stroke-linejoin:miter;stroke-opacity:1"
       d="M 9.017193,2.1264853 2.7230897,6.0478634 v 6.9835606 l 6.1793882,3.567869 v 0.132272 l 0.1147151,-0.06555 0.1135441,0.06555 V 16.599293 L 15.311296,13.031424 V 6.0478634 Z m 0,2.8136865 3.842949,2.2193821 0,4.8597361 -3.842949,2.219382 -3.84412,-2.219382 0,-4.8597361 z"
       sodipodi:nodetypes="cccccccccccccccccc"
       inkscape:export-filename="entity-icon.svg"
       inkscape:export-xdpi="392"
       inkscape:export-ydpi="392" /><path
       style="fill:#000000;stroke-width:2.10875"
       d="m 44.797769,15.276421 c -1.70164,-0.858248 -3.150238,-1.613018 -3.219108,-1.677267 -0.314959,-0.293827 -0.312117,-0.270376 -0.352149,-2.904682 -0.02024,-1.3293834 -0.04559,-2.4270089 -0.05641,-2.4391678 -0.01075,-0.012168 -0.27127,0.099232 -0.578779,0.2475361 -0.307511,0.1483045 -0.612873,0.2695077 -0.678586,0.2693415 -0.147487,-3.73e-4 -0.374992,-0.219049 -0.374992,-0.3604274 0,-0.1120192 0.329565,-0.7358897 1.002112,-1.8970094 0.734816,-1.2686261 0.494834,-1.1003713 4.204453,-2.9477935 3.167511,-1.5774468 3.189733,-1.5874801 3.508041,-1.5838526 0.313656,0.00358 0.382722,0.035136 3.310974,1.5130501 1.644852,0.8301697 3.084327,1.5688267 3.198835,1.64146 0.176545,0.1119896 0.277124,0.2617464 0.661687,0.9853154 0.488187,0.9185358 1.208784,2.4323678 1.264453,2.6563616 0.06931,0.2789194 -0.07843,0.4279693 -0.772365,0.7792493 l -0.643018,0.325497 -0.03513,1.6079237 c -0.03804,1.741445 -0.05179,1.822953 -0.35511,2.105901 -0.06811,0.06354 -1.51926,0.818899 -3.224783,1.678589 l -3.100946,1.563072 -0.332648,-0.0013 c -0.331721,-0.0013 -0.341242,-0.0057 -3.426537,-1.561773 z M 47.65744,12.311332 V 9.1884779 L 45.055178,7.887144 C 43.623937,7.17141 42.429406,6.5858098 42.400666,6.5858098 c -0.03439,0 -0.05226,1.058912 -0.05226,3.0968315 v 3.0968297 l 2.641506,1.32451 c 1.452824,0.728482 2.647356,1.325793 2.654513,1.327359 0.0072,0.0016 0.01307,-1.402439 0.01307,-3.120008 z m 6.45411,-0.676843 c 0,-0.629742 -0.008,-1.144984 -0.01792,-1.144984 -0.0099,0 -0.947706,0.456733 -2.084061,1.01496 -1.426636,0.700828 -2.119663,1.014963 -2.239164,1.014963 -0.261239,0 -0.425648,-0.167667 -0.707232,-0.721264 l -0.25529,-0.501896 -0.0027,2.069059 -0.0027,2.069061 2.654514,-1.327459 2.654513,-1.327456 z M 52.726539,9.8682373 c 1.448807,-0.7138508 2.634195,-1.3113505 2.634195,-1.3277774 0,-0.027861 -0.983998,-2.0143265 -1.014566,-2.0481794 -0.02113,-0.02339 -0.670575,0.2880231 -3.111142,1.4917911 l -2.225908,1.0978917 0.521541,1.0420907 c 0.28685,0.573151 0.530575,1.042091 0.541615,1.042091 0.01096,0 1.205458,-0.584059 2.654265,-1.2979077 z M 50.797546,6.9189441 c 1.378982,-0.6755894 2.515668,-1.236389 2.525967,-1.2462215 0.0103,-0.00983 -1.131532,-0.5930999 -2.537403,-1.2961502 L 48.229982,3.0982996 v 2.5244943 c 0,1.3884719 0.0135,2.5244944 0.03016,2.5244944 0.01666,0 1.158421,-0.552755 2.537404,-1.2283442 z"
       id="path9"
       inkscape:export-filename="scene-icon.svg"
       inkscape:export-xdpi="392"
       inkscape:export-ydpi="392" /><rect
       style="opacity:1;fill:none;fill-opacity:1;stroke:#000000;stroke-width:0.859;stroke-linecap:butt;stroke-linejoin:miter;stroke-dasharray:none"
       id="rect9"
       width="16.727076"
       height="16.570454"
       x="3.1525898"
       y="21.871687"
       inkscape:export-filename="2d-engine-icon.svg"
       inkscape:export-xdpi="392"
       inkscape:export-ydpi="392" /><text
       xml:space="preserve"
       style="font-style:normal;font-weight:normal;font-size:7.43986px;line-height:0;font-family:sans-serif;letter-spacing:-0.297595px;word-spacing:-0.301315px;fill:#000000;fill-opacity:1;stroke:none;stroke-width:0.185997"
       x="9.850728"
       y="38.178032"
       id="text9"><tspan
         sodipodi:role="line"
         id="tspan9"
         style="font-style:normal;font-variant:normal;font-weight:normal;font-stretch:normal;line-height:0;font-family:Impact;-inkscape-font-specification:Impact;letter-spacing:-0.297595px;word-spacing:-0.301315px;stroke-width:0.185997"
         x="9.850728"
         y="38.178032"
         dx="1.4692308">2D</tspan></text><path
       style="fill:#000000;stroke-width:0.119428"
       d="m 27.860661,16.543132 c -0.141903,-0.0321 -7.718869,-4.657932 -7.839549,-4.786141 -0.182898,-0.194311 -0.167562,-0.512024 0.03324,-0.688433 0.102433,-0.09 1.99682,-1.2564561 2.040542,-1.2564561 0.01353,0 1.110824,0.6625821 2.438449,1.4724071 2.919038,1.780556 2.782694,1.7005 3.00734,1.765807 0.235026,0.06832 0.631921,0.06832 0.866947,0 0.224646,-0.06531 0.08831,0.01476 3.007345,-1.765807 1.327621,-0.809825 2.424923,-1.4724071 2.438443,-1.4724071 0.04371,0 1.938107,1.1664571 2.040544,1.2564561 0.200793,0.176409 0.21613,0.494128 0.03325,0.688426 -0.05696,0.06051 -1.748409,1.111243 -3.889753,2.416326 -2.083936,1.270093 -3.811587,2.320765 -3.839229,2.334827 -0.08403,0.04273 -0.234403,0.05832 -0.337545,0.035 z M 27.718169,11.981318 C 27.402549,11.812648 20.145551,7.3721086 20.054343,7.2918459 19.853544,7.1151422 19.838217,6.7975757 20.02111,6.6032704 c 0.125832,-0.1336825 7.697967,-4.7530271 7.846,-4.786414 0.05887,-0.013276 0.155206,-0.013276 0.214078,0 0.148032,0.033388 7.720165,4.6527315 7.846,4.786414 0.182892,0.1943053 0.167568,0.5118718 -0.03325,0.6885755 -0.09121,0.080263 -7.34821,4.5208021 -7.663825,4.6894721 -0.07645,0.04085 -0.191643,0.07429 -0.255981,0.07429 -0.06434,0 -0.179532,-0.03342 -0.25598,-0.07429 z"
       id="path1"
       inkscape:export-filename="layers-icon.svg"
       inkscape:export-xdpi="96"
       inkscape:export-ydpi="96" /><g
       id="g7"
       inkscape:export-filename="wrap-icon.svg"
       inkscape:export-xdpi="96"
       inkscape:export-ydpi="96"><path
         id="path2"
         style="fill:#000000;fill-opacity:1;stroke:none;stroke-width:0.259;stroke-linecap:round;stroke-linejoin:round;paint-order:markers stroke fill"
         d="M 62.919674 3.1253906 A 0.62503189 0.62503189 0 0 0 62.294906 3.7501587 A 0.62503189 0.62503189 0 0 0 62.919674 4.3754435 A 0.62503189 0.62503189 0 0 0 63.544958 3.7501587 A 0.62503189 0.62503189 0 0 0 62.919674 3.1253906 z M 67.045003 3.1253906 A 0.62503189 0.62503189 0 0 0 66.419718 3.7501587 A 0.62503189 0.62503189 0 0 0 67.045003 4.3754435 A 0.62503189 0.62503189 0 0 0 67.669771 3.7501587 A 0.62503189 0.62503189 0 0 0 67.045003 3.1253906 z " /><path
         id="path5"
         style="fill:#000000;fill-opacity:1;stroke:none;stroke-width:0.259;stroke-linecap:round;stroke-linejoin:round;paint-order:markers stroke fill"
         d="m 62.919674,7.25039 a 0.62503189,0.62503189 0 0 0 -0.624768,0.6247681 0.62503189,0.62503189 0 0 0 0.624768,0.625285 0.62503189,0.62503189 0 0 0 0.625284,-0.625285 A 0.62503189,0.62503189 0 0 0 62.919674,7.25039 Z m 4.125329,0 a 0.62503189,0.62503189 0 0 0 -0.625285,0.6247681 0.62503189,0.62503189 0 0 0 0.625285,0.625285 0.62503189,0.62503189 0 0 0 0.624768,-0.625285 A 0.62503189,0.62503189 0 0 0 67.045003,7.25039 Z" /><path
         id="path6"
         style="fill:#000000;fill-opacity:1;stroke:none;stroke-width:0.259;stroke-linecap:round;stroke-linejoin:round;paint-order:markers stroke fill"
         d="m 62.919674,11.37539 a 0.62503189,0.62503189 0 0 0 -0.624768,0.624769 0.62503189,0.62503189 0 0 0 0.624768,0.625285 0.62503189,0.62503189 0 0 0 0.625284,-0.625285 0.62503189,0.62503189 0 0 0 -0.625284,-0.624769 z m 4.125329,0 a 0.62503189,0.62503189 0 0 0 -0.625285,0.624769 0.62503189,0.62503189 0 0 0 0.625285,0.625285 0.62503189,0.62503189 0 0 0 0.624768,-0.625285 0.62503189,0.62503189 0 0 0 -0.624768,-0.624769 z" /><path
         id="path7"
         style="fill:#000000;fill-opacity:1;stroke:none;stroke-width:0.259;stroke-linecap:round;stroke-linejoin:round;paint-order:markers stroke fill"
         d="m 62.919674,15.50039 a 0.62503189,0.62503189 0 0 0 -0.624768,0.624769 0.62503189,0.62503189 0 0 0 0.624768,0.625285 0.62503189,0.62503189 0 0 0 0.625284,-0.625285 0.62503189,0.62503189 0 0 0 -0.625284,-0.624769 z m 4.125329,0 a 0.62503189,0.62503189 0 0 0 -0.625285,0.624769 0.62503189,0.62503189 0 0 0 0.625285,0.625285 0.62503189,0.62503189 0 0 0 0.624768,-0.625285 0.62503189,0.62503189 0 0 0 -0.624768,-0.624769 z" /></g><path
       style="fill:#000000;stroke-width:0.137564"
       d="m 78.646558,17.169189 c -0.136968,-0.05933 -0.307697,-0.20643 -0.376201,-0.32414 -0.03098,-0.05323 -0.04726,-0.94361 -0.06056,-3.312137 l -0.0182,-3.239341 -3.239341,-0.0182 c -2.368527,-0.01331 -3.25891,-0.02959 -3.312135,-0.06056 -0.203997,-0.118721 -0.38217,-0.4128929 -0.38217,-0.6309824 0,-0.2180897 0.178173,-0.5122616 0.38217,-0.6309822 0.05323,-0.030976 0.943608,-0.047256 3.312135,-0.060563 l 3.239341,-0.018199 0.0182,-3.2393412 c 0.0133,-2.3685271 0.02959,-3.2589101 0.06056,-3.3121355 0.11872,-0.2039972 0.412892,-0.3821695 0.630982,-0.3821695 0.21809,0 0.512262,0.1781723 0.630982,0.3821695 0.03097,0.053225 0.04726,0.9436084 0.06056,3.3121355 l 0.0182,3.2393412 3.239341,0.018199 c 2.368527,0.013306 3.258911,0.029587 3.312136,0.060563 0.203997,0.1187206 0.38217,0.4128925 0.38217,0.6309822 0,0.2180895 -0.178173,0.5122614 -0.38217,0.6309824 -0.05322,0.03097 -0.943609,0.04726 -3.312136,0.06056 l -3.239341,0.0182 -0.0182,3.239341 c -0.0133,2.368527 -0.02959,3.258911 -0.06056,3.312137 -0.07065,0.121404 -0.241093,0.265891 -0.384133,0.325642 -0.168744,0.07049 -0.336587,0.06999 -0.50163,-0.0015 z"
       id="path3"
       inkscape:export-filename="plus-icon.svg"
       inkscape:export-xdpi="96"
       inkscape:export-ydpi="96" /></g></svg>
