<?xml version="1.0" encoding="UTF-8" standalone="no"?>
<!-- Created with Inkscape (http://www.inkscape.org/) -->

<svg
   width="15.150567mm"
   height="12.364618mm"
   viewBox="0 0 15.150567 12.364618"
   version="1.1"
   id="svg1"
   xml:space="preserve"
   xmlns:inkscape="http://www.inkscape.org/namespaces/inkscape"
   xmlns:sodipodi="http://sodipodi.sourceforge.net/DTD/sodipodi-0.dtd"
   xmlns="http://www.w3.org/2000/svg"
   xmlns:svg="http://www.w3.org/2000/svg"><sodipodi:namedview
     id="namedview1"
     pagecolor="#ffffff"
     bordercolor="#666666"
     borderopacity="1.0"
     inkscape:showpageshadow="2"
     inkscape:pageopacity="0.0"
     inkscape:pagecheckerboard="0"
     inkscape:deskcolor="#d1d1d1"
     inkscape:document-units="mm" /><defs
     id="defs1" /><g
     inkscape:label="Camada 1"
     inkscape:groupmode="layer"
     id="layer1"
     transform="translate(-21.207421,-2.8184327)"><g
       id="g6"><path
         id="rect5"
         style="opacity:1;fill:#000000;fill-opacity:1;stroke:none;stroke-width:0.396099;stroke-linecap:round;stroke-linejoin:round"
         d="m 22.80791,2.8184326 c -0.24682,0 -0.445451,0.1986313 -0.445451,0.4454509 V 13.741797 c 0,0.24682 0.198631,0.445451 0.445451,0.445451 h 13.104627 c 0.246818,0 0.44545,-0.198631 0.44545,-0.445451 V 3.2638835 c 0,-0.2468196 -0.198632,-0.4454509 -0.44545,-0.4454509 z m 0.08682,0.5333008 h 0.503328 c 0.09393,0 0.170015,0.07557 0.170015,0.1694987 v 0.5033284 c 0,0.093929 -0.07609,0.1700155 -0.170015,0.1700155 H 22.89473 c -0.09393,0 -0.169499,-0.076087 -0.169499,-0.1700155 V 3.5212321 c 0,-0.093929 0.07557,-0.1694987 0.169499,-0.1694987 z m -0.132809,1.388029 H 35.967314 V 13.549561 H 22.761918 Z" /><path
         style="fill:none;stroke:#000000;stroke-width:0.465;stroke-linecap:round;stroke-linejoin:round;stroke-dasharray:none;stroke-opacity:1"
         d="M 21.907674,4.5493381 H 21.43992 V 14.950551 h 14.321102 v -0.442679"
         id="path6"
         sodipodi:nodetypes="ccccc" /></g></g></svg>
