<?xml version="1.0" encoding="UTF-8" standalone="no"?>
<!-- Created with Inkscape (http://www.inkscape.org/) -->

<svg
   width="16.161776mm"
   height="14.747061mm"
   viewBox="0 0 16.161776 14.747061"
   version="1.1"
   id="svg1"
   xml:space="preserve"
   inkscape:version="1.3.2 (091e20e, 2023-11-25)"
   sodipodi:docname="bin-all-icons.svg"
   xmlns:inkscape="http://www.inkscape.org/namespaces/inkscape"
   xmlns:sodipodi="http://sodipodi.sourceforge.net/DTD/sodipodi-0.dtd"
   xmlns="http://www.w3.org/2000/svg"
   xmlns:svg="http://www.w3.org/2000/svg"><sodipodi:namedview
     id="namedview1"
     pagecolor="#ffffff"
     bordercolor="#666666"
     borderopacity="1.0"
     inkscape:showpageshadow="2"
     inkscape:pageopacity="0.0"
     inkscape:pagecheckerboard="0"
     inkscape:deskcolor="#d1d1d1"
     inkscape:document-units="mm"
     inkscape:zoom="3.5919192"
     inkscape:cx="94.100113"
     inkscape:cy="116.92913"
     inkscape:window-width="1366"
     inkscape:window-height="704"
     inkscape:window-x="0"
     inkscape:window-y="27"
     inkscape:window-maximized="1"
     inkscape:current-layer="layer1" /><defs
     id="defs1" /><g
     inkscape:label="Camada 1"
     inkscape:groupmode="layer"
     id="layer1"
     transform="translate(-19.893267,-1.8068994)"><path
       style="fill:#000000;stroke-width:0.119428"
       d="m 27.860661,16.543132 c -0.141903,-0.0321 -7.718869,-4.657932 -7.839549,-4.786141 -0.182898,-0.194311 -0.167562,-0.512024 0.03324,-0.688433 0.102433,-0.09 1.99682,-1.2564561 2.040542,-1.2564561 0.01353,0 1.110824,0.6625821 2.438449,1.4724071 2.919038,1.780556 2.782694,1.7005 3.00734,1.765807 0.235026,0.06832 0.631921,0.06832 0.866947,0 0.224646,-0.06531 0.08831,0.01476 3.007345,-1.765807 1.327621,-0.809825 2.424923,-1.4724071 2.438443,-1.4724071 0.04371,0 1.938107,1.1664571 2.040544,1.2564561 0.200793,0.176409 0.21613,0.494128 0.03325,0.688426 -0.05696,0.06051 -1.748409,1.111243 -3.889753,2.416326 -2.083936,1.270093 -3.811587,2.320765 -3.839229,2.334827 -0.08403,0.04273 -0.234403,0.05832 -0.337545,0.035 z M 27.718169,11.981318 C 27.402549,11.812648 20.145551,7.3721086 20.054343,7.2918459 19.853544,7.1151422 19.838217,6.7975757 20.02111,6.6032704 c 0.125832,-0.1336825 7.697967,-4.7530271 7.846,-4.786414 0.05887,-0.013276 0.155206,-0.013276 0.214078,0 0.148032,0.033388 7.720165,4.6527315 7.846,4.786414 0.182892,0.1943053 0.167568,0.5118718 -0.03325,0.6885755 -0.09121,0.080263 -7.34821,4.5208021 -7.663825,4.6894721 -0.07645,0.04085 -0.191643,0.07429 -0.255981,0.07429 -0.06434,0 -0.179532,-0.03342 -0.25598,-0.07429 z"
       id="path1" /></g></svg>
