<?xml version="1.0" encoding="UTF-8" standalone="no"?>
<!-- Created with Inkscape (http://www.inkscape.org/) -->

<svg
   width="15.286777mm"
   height="15.282748mm"
   viewBox="0 0 15.286777 15.282748"
   version="1.1"
   id="svg1"
   xml:space="preserve"
   inkscape:version="1.3.2 (091e20e, 2023-11-25, custom)"
   sodipodi:docname="bin-all-icons.svg"
   xmlns:inkscape="http://www.inkscape.org/namespaces/inkscape"
   xmlns:sodipodi="http://sodipodi.sourceforge.net/DTD/sodipodi-0.dtd"
   xmlns="http://www.w3.org/2000/svg"
   xmlns:svg="http://www.w3.org/2000/svg"><sodipodi:namedview
     id="namedview1"
     pagecolor="#ffffff"
     bordercolor="#666666"
     borderopacity="1.0"
     inkscape:showpageshadow="2"
     inkscape:pageopacity="0.0"
     inkscape:pagecheckerboard="0"
     inkscape:deskcolor="#d1d1d1"
     inkscape:document-units="mm"
     inkscape:zoom="3.5919192"
     inkscape:cx="237.1991"
     inkscape:cy="43.848426"
     inkscape:window-width="1600"
     inkscape:window-height="837"
     inkscape:window-x="-8"
     inkscape:window-y="-8"
     inkscape:window-maximized="1"
     inkscape:current-layer="layer1" /><defs
     id="defs1" /><g
     inkscape:label="Camada 1"
     inkscape:groupmode="layer"
     id="layer1"
     transform="translate(-71.257951,-1.9404381)"><path
       style="fill:#000000;stroke-width:0.137564"
       d="m 78.646558,17.169189 c -0.136968,-0.05933 -0.307697,-0.20643 -0.376201,-0.32414 -0.03098,-0.05323 -0.04726,-0.94361 -0.06056,-3.312137 l -0.0182,-3.239341 -3.239341,-0.0182 c -2.368527,-0.01331 -3.25891,-0.02959 -3.312135,-0.06056 -0.203997,-0.118721 -0.38217,-0.4128929 -0.38217,-0.6309824 0,-0.2180897 0.178173,-0.5122616 0.38217,-0.6309822 0.05323,-0.030976 0.943608,-0.047256 3.312135,-0.060563 l 3.239341,-0.018199 0.0182,-3.2393412 c 0.0133,-2.3685271 0.02959,-3.2589101 0.06056,-3.3121355 0.11872,-0.2039972 0.412892,-0.3821695 0.630982,-0.3821695 0.21809,0 0.512262,0.1781723 0.630982,0.3821695 0.03097,0.053225 0.04726,0.9436084 0.06056,3.3121355 l 0.0182,3.2393412 3.239341,0.018199 c 2.368527,0.013306 3.258911,0.029587 3.312136,0.060563 0.203997,0.1187206 0.38217,0.4128925 0.38217,0.6309822 0,0.2180895 -0.178173,0.5122614 -0.38217,0.6309824 -0.05322,0.03097 -0.943609,0.04726 -3.312136,0.06056 l -3.239341,0.0182 -0.0182,3.239341 c -0.0133,2.368527 -0.02959,3.258911 -0.06056,3.312137 -0.07065,0.121404 -0.241093,0.265891 -0.384133,0.325642 -0.168744,0.07049 -0.336587,0.06999 -0.50163,-0.0015 z"
       id="path3" /></g></svg>
