<?xml version="1.0" encoding="UTF-8" standalone="no"?>
<!-- Created with Inkscape (http://www.inkscape.org/) -->

<svg
   width="17.166014mm"
   height="14.85669mm"
   viewBox="0 0 17.166014 14.85669"
   version="1.1"
   id="svg1"
   xml:space="preserve"
   xmlns:inkscape="http://www.inkscape.org/namespaces/inkscape"
   xmlns:sodipodi="http://sodipodi.sourceforge.net/DTD/sodipodi-0.dtd"
   xmlns="http://www.w3.org/2000/svg"
   xmlns:svg="http://www.w3.org/2000/svg"><sodipodi:namedview
     id="namedview1"
     pagecolor="#ffffff"
     bordercolor="#666666"
     borderopacity="1.0"
     inkscape:showpageshadow="2"
     inkscape:pageopacity="0.0"
     inkscape:pagecheckerboard="0"
     inkscape:deskcolor="#d1d1d1"
     inkscape:document-units="mm" /><defs
     id="defs1" /><g
     inkscape:label="Camada 1"
     inkscape:groupmode="layer"
     id="layer1"
     transform="translate(-39.537744,-1.9828287)"><path
       style="fill:#000000;stroke-width:2.10875"
       d="m 44.797769,15.276421 c -1.70164,-0.858248 -3.150238,-1.613018 -3.219108,-1.677267 -0.314959,-0.293827 -0.312117,-0.270376 -0.352149,-2.904682 -0.02024,-1.3293834 -0.04559,-2.4270089 -0.05641,-2.4391678 -0.01075,-0.012168 -0.27127,0.099232 -0.578779,0.2475361 -0.307511,0.1483045 -0.612873,0.2695077 -0.678586,0.2693415 -0.147487,-3.73e-4 -0.374992,-0.219049 -0.374992,-0.3604274 0,-0.1120192 0.329565,-0.7358897 1.002112,-1.8970094 0.734816,-1.2686261 0.494834,-1.1003713 4.204453,-2.9477935 3.167511,-1.5774468 3.189733,-1.5874801 3.508041,-1.5838526 0.313656,0.00358 0.382722,0.035136 3.310974,1.5130501 1.644852,0.8301697 3.084327,1.5688267 3.198835,1.64146 0.176545,0.1119896 0.277124,0.2617464 0.661687,0.9853154 0.488187,0.9185358 1.208784,2.4323678 1.264453,2.6563616 0.06931,0.2789194 -0.07843,0.4279693 -0.772365,0.7792493 l -0.643018,0.325497 -0.03513,1.6079237 c -0.03804,1.741445 -0.05179,1.822953 -0.35511,2.105901 -0.06811,0.06354 -1.51926,0.818899 -3.224783,1.678589 l -3.100946,1.563072 -0.332648,-0.0013 c -0.331721,-0.0013 -0.341242,-0.0057 -3.426537,-1.561773 z M 47.65744,12.311332 V 9.1884779 L 45.055178,7.887144 C 43.623937,7.17141 42.429406,6.5858098 42.400666,6.5858098 c -0.03439,0 -0.05226,1.058912 -0.05226,3.0968315 v 3.0968297 l 2.641506,1.32451 c 1.452824,0.728482 2.647356,1.325793 2.654513,1.327359 0.0072,0.0016 0.01307,-1.402439 0.01307,-3.120008 z m 6.45411,-0.676843 c 0,-0.629742 -0.008,-1.144984 -0.01792,-1.144984 -0.0099,0 -0.947706,0.456733 -2.084061,1.01496 -1.426636,0.700828 -2.119663,1.014963 -2.239164,1.014963 -0.261239,0 -0.425648,-0.167667 -0.707232,-0.721264 l -0.25529,-0.501896 -0.0027,2.069059 -0.0027,2.069061 2.654514,-1.327459 2.654513,-1.327456 z M 52.726539,9.8682373 c 1.448807,-0.7138508 2.634195,-1.3113505 2.634195,-1.3277774 0,-0.027861 -0.983998,-2.0143265 -1.014566,-2.0481794 -0.02113,-0.02339 -0.670575,0.2880231 -3.111142,1.4917911 l -2.225908,1.0978917 0.521541,1.0420907 c 0.28685,0.573151 0.530575,1.042091 0.541615,1.042091 0.01096,0 1.205458,-0.584059 2.654265,-1.2979077 z M 50.797546,6.9189441 c 1.378982,-0.6755894 2.515668,-1.236389 2.525967,-1.2462215 0.0103,-0.00983 -1.131532,-0.5930999 -2.537403,-1.2961502 L 48.229982,3.0982996 v 2.5244943 c 0,1.3884719 0.0135,2.5244944 0.03016,2.5244944 0.01666,0 1.158421,-0.552755 2.537404,-1.2283442 z"
       id="path9" /></g></svg>
