<?xml version="1.0" encoding="UTF-8" standalone="no"?>
<!-- Created with Inkscape (http://www.inkscape.org/) -->

<svg
   width="5.3748655mm"
   height="13.625054mm"
   viewBox="0 0 5.3748655 13.625054"
   version="1.1"
   id="svg1"
   xml:space="preserve"
   inkscape:version="1.3.2 (091e20e, 2023-11-25, custom)"
   sodipodi:docname="bin-all-icons.svg"
   xmlns:inkscape="http://www.inkscape.org/namespaces/inkscape"
   xmlns:sodipodi="http://sodipodi.sourceforge.net/DTD/sodipodi-0.dtd"
   xmlns="http://www.w3.org/2000/svg"
   xmlns:svg="http://www.w3.org/2000/svg"><sodipodi:namedview
     id="namedview1"
     pagecolor="#ffffff"
     bordercolor="#666666"
     borderopacity="1.0"
     inkscape:showpageshadow="2"
     inkscape:pageopacity="0.0"
     inkscape:pagecheckerboard="0"
     inkscape:deskcolor="#d1d1d1"
     inkscape:document-units="mm"
     inkscape:zoom="2.5398704"
     inkscape:cx="151.97626"
     inkscape:cy="92.721266"
     inkscape:window-width="1600"
     inkscape:window-height="837"
     inkscape:window-x="-8"
     inkscape:window-y="-8"
     inkscape:window-maximized="1"
     inkscape:current-layer="layer1" /><defs
     id="defs1" /><g
     inkscape:label="Camada 1"
     inkscape:groupmode="layer"
     id="layer1"
     transform="translate(-62.294904,-3.1253907)"><g
       id="g7"><path
         id="path2"
         style="fill:#000000;fill-opacity:1;stroke:none;stroke-width:0.259;stroke-linecap:round;stroke-linejoin:round;paint-order:markers stroke fill"
         d="m 62.919674,3.1253906 a 0.62503189,0.62503189 0 0 0 -0.624768,0.6247681 0.62503189,0.62503189 0 0 0 0.624768,0.6252848 0.62503189,0.62503189 0 0 0 0.625284,-0.6252848 0.62503189,0.62503189 0 0 0 -0.625284,-0.6247681 z m 4.125329,0 a 0.62503189,0.62503189 0 0 0 -0.625285,0.6247681 0.62503189,0.62503189 0 0 0 0.625285,0.6252848 0.62503189,0.62503189 0 0 0 0.624768,-0.6252848 0.62503189,0.62503189 0 0 0 -0.624768,-0.6247681 z" /><path
         id="path5"
         style="fill:#000000;fill-opacity:1;stroke:none;stroke-width:0.259;stroke-linecap:round;stroke-linejoin:round;paint-order:markers stroke fill"
         d="m 62.919674,7.25039 a 0.62503189,0.62503189 0 0 0 -0.624768,0.6247681 0.62503189,0.62503189 0 0 0 0.624768,0.625285 0.62503189,0.62503189 0 0 0 0.625284,-0.625285 A 0.62503189,0.62503189 0 0 0 62.919674,7.25039 Z m 4.125329,0 a 0.62503189,0.62503189 0 0 0 -0.625285,0.6247681 0.62503189,0.62503189 0 0 0 0.625285,0.625285 0.62503189,0.62503189 0 0 0 0.624768,-0.625285 A 0.62503189,0.62503189 0 0 0 67.045003,7.25039 Z" /><path
         id="path6"
         style="fill:#000000;fill-opacity:1;stroke:none;stroke-width:0.259;stroke-linecap:round;stroke-linejoin:round;paint-order:markers stroke fill"
         d="m 62.919674,11.37539 a 0.62503189,0.62503189 0 0 0 -0.624768,0.624769 0.62503189,0.62503189 0 0 0 0.624768,0.625285 0.62503189,0.62503189 0 0 0 0.625284,-0.625285 0.62503189,0.62503189 0 0 0 -0.625284,-0.624769 z m 4.125329,0 a 0.62503189,0.62503189 0 0 0 -0.625285,0.624769 0.62503189,0.62503189 0 0 0 0.625285,0.625285 0.62503189,0.62503189 0 0 0 0.624768,-0.625285 0.62503189,0.62503189 0 0 0 -0.624768,-0.624769 z" /><path
         id="path7"
         style="fill:#000000;fill-opacity:1;stroke:none;stroke-width:0.259;stroke-linecap:round;stroke-linejoin:round;paint-order:markers stroke fill"
         d="m 62.919674,15.50039 a 0.62503189,0.62503189 0 0 0 -0.624768,0.624769 0.62503189,0.62503189 0 0 0 0.624768,0.625285 0.62503189,0.62503189 0 0 0 0.625284,-0.625285 0.62503189,0.62503189 0 0 0 -0.625284,-0.624769 z m 4.125329,0 a 0.62503189,0.62503189 0 0 0 -0.625285,0.624769 0.62503189,0.62503189 0 0 0 0.625285,0.625285 0.62503189,0.62503189 0 0 0 0.624768,-0.625285 0.62503189,0.62503189 0 0 0 -0.624768,-0.624769 z" /></g></g></svg>
